<svg version="1.1" id="Layer_1" xmlns="http://www.w3.org/2000/svg" xmlns:xlink="http://www.w3.org/1999/xlink" x="0px" y="0px"
	 width="110px" height="110px" viewBox="0 0 110 110" enable-background="new 0 0 110 110" xml:space="preserve">
	<path d="M6.372,55.001c0,26.813,21.814,48.628,48.628,48.628c2.325,0,4.702-0.177,7.065-0.524l0.415-0.061l1.998,5.977
		L77.726,94.05l-19.588-3.988l1.786,5.341l-0.619,0.065c-1.431,0.151-2.879,0.228-4.305,0.228
		c-22.439,0-40.695-18.256-40.695-40.694c0-9.574,3.389-18.874,9.543-26.188l0.956-1.136l-6.069-5.108l-0.956,1.137
		C10.423,32.447,6.372,43.562,6.372,55.001z"/>
	<path d="M103.628,55.001c0-26.813-21.814-48.628-48.628-48.628c-2.32,0-4.696,0.176-7.062,0.522l-0.414,0.061l-1.999-5.977
		L32.28,15.95l19.587,3.988l-1.786-5.342l0.62-0.064c1.436-0.15,2.882-0.227,4.299-0.227c22.439,0,40.695,18.256,40.695,40.695
		c0,9.681-3.456,19.06-9.731,26.408l-0.965,1.131l6.033,5.149l0.964-1.129C99.497,77.775,103.628,66.567,103.628,55.001z"/>
</svg>
