<?xml version="1.0" encoding="utf-8"?>
<!-- Generator: Adobe Illustrator 16.0.4, SVG Export Plug-In . SVG Version: 6.00 Build 0)  -->
<!DOCTYPE svg PUBLIC "-//W3C//DTD SVG 1.1//EN" "http://www.w3.org/Graphics/SVG/1.1/DTD/svg11.dtd">
<svg version="1.1" id="Layer_1" xmlns="http://www.w3.org/2000/svg" xmlns:xlink="http://www.w3.org/1999/xlink" x="0px" y="0px"
	 width="50px" height="50px" viewBox="0 0 50 50" enable-background="new 0 0 50 50" xml:space="preserve">
<g>
	<polygon points="18.465,45.111 14.017,46.559 12.569,42.107 7.892,42.107 7.892,37.43 3.442,35.982 4.889,31.534 1.103,28.785 
		3.854,25 1.104,21.214 4.888,18.466 3.443,14.016 7.894,12.57 7.893,7.893 12.571,7.893 14.018,3.443 18.466,4.887 21.218,1.104 
		25.002,3.854 28.785,1.103 31.535,4.889 35.986,3.443 37.432,7.893 42.107,7.893 42.107,12.57 46.561,14.019 45.111,18.466 
		48.896,21.217 46.146,25 48.896,28.785 45.113,31.536 46.559,35.986 42.107,37.432 42.107,42.109 37.43,42.107 35.982,46.559 
		31.535,45.113 28.783,48.896 25,46.146 21.214,48.896 	"/>
	<path fill="#FFFFFF" d="M28.564,2.5l2.588,3.564l4.19-1.361l1.36,4.189h4.404v4.404l4.189,1.363l-1.361,4.188l3.562,2.59L44.911,25
		l2.589,3.564l-3.562,2.59l1.36,4.188l-4.188,1.36v4.404h-4.405l-1.361,4.188l-4.188-1.36L28.562,47.5L25,44.911L21.436,47.5
		l-2.589-3.564l-4.188,1.362l-1.362-4.188H8.892v-4.406l-4.189-1.361l1.362-4.188L2.5,28.562L5.09,25l-2.589-3.564l3.562-2.588
		l-1.36-4.189l4.19-1.361V8.893h4.405l1.362-4.189l4.188,1.359l2.59-3.563l3.563,2.59L28.564,2.5 M28.913,0.299l-1.581,1.148
		l-2.33,1.695L22.67,1.447L21.091,0.3l-1.148,1.578l-1.696,2.333l-2.74-0.89L13.65,2.719l-0.604,1.856l-0.892,2.742H9.271H7.318
		v1.953v2.881l-2.742,0.891l-1.857,0.604l0.604,1.856l0.891,2.742l-2.332,1.693l-1.58,1.148l1.147,1.58L3.143,25l-1.695,2.332
		L0.3,28.912l1.581,1.149l2.333,1.691l-0.893,2.741l-0.604,1.859l1.857,0.602l2.743,0.891v2.884v1.954h1.953h2.882l0.892,2.742
		l0.604,1.857l1.857-0.604l2.74-0.891l1.693,2.332l1.147,1.581l1.58-1.148L25,46.858l2.33,1.694l1.58,1.146l1.149-1.578l1.694-2.332
		l2.743,0.89l1.857,0.603l0.602-1.855l0.892-2.742l2.882,0.002h1.954v-1.954v-2.884l2.741-0.89l1.856-0.602l-0.603-1.858
		l-0.89-2.742l2.331-1.693l1.579-1.149l-1.146-1.581L46.858,25l1.694-2.331l1.147-1.58l-1.58-1.148l-2.331-1.694l0.891-2.739
		l0.604-1.857l-1.855-0.605l-2.744-0.892V9.271V7.318h-1.954h-2.882l-0.89-2.741l-0.602-1.858l-1.858,0.604l-2.742,0.891
		l-1.693-2.333L28.913,0.299L28.913,0.299z"/>
</g>
</svg>
